<?xml version="1.0" standalone="no"?>
<!DOCTYPE svg PUBLIC "-//W3C//DTD SVG 20010904//EN"
 "http://www.w3.org/TR/2001/REC-SVG-20010904/DTD/svg10.dtd">
<svg version="1.0" xmlns="http://www.w3.org/2000/svg"
 width="446.000000pt" height="509.000000pt" viewBox="0 0 446.000000 509.000000"
 preserveAspectRatio="xMidYMid meet">

<g transform="translate(0.000000,509.000000) scale(0.100000,-0.100000)"
fill="#000000" stroke="none">
<path d="M0 2545 l0 -2545 2230 0 2230 0 0 2545 0 2545 -2230 0 -2230 0 0
-2545z m2490 2215 c420 -39 719 -166 974 -415 138 -134 211 -262 261 -455 40
-151 46 -400 16 -579 -26 -156 -27 -274 -3 -338 26 -66 118 -213 191 -303 67
-82 83 -126 58 -163 -14 -21 -23 -24 -90 -24 -62 0 -82 -4 -122 -26 -26 -15
-51 -24 -56 -21 -5 3 -9 1 -9 -4 0 -15 -43 -2 -57 16 -12 14 -13 13 -13 -5 0
-11 8 -31 19 -44 l18 -23 58 22 c66 26 69 26 58 10 -9 -16 -12 -31 -15 -90 -2
-36 3 -55 20 -77 26 -36 27 -44 5 -82 -12 -21 -25 -29 -43 -28 -14 1 -42 -6
-62 -15 -21 -9 -52 -15 -70 -15 -20 1 -25 3 -13 6 12 2 34 15 50 28 l30 24
-65 -21 c-128 -41 -130 -54 -10 -50 84 4 90 3 115 -22 27 -27 34 -73 14 -93
-7 -7 -24 -10 -38 -7 -15 3 -34 -1 -46 -10 -17 -13 -18 -18 -8 -35 9 -15 10
-28 3 -47 -8 -21 -6 -41 11 -91 19 -57 20 -70 9 -110 -28 -99 -90 -123 -247
-92 -54 11 -539 201 -728 286 -214 96 -345 203 -401 329 -29 67 -54 187 -54
265 l0 62 167 -6 c92 -3 177 -1 190 4 l23 9 1 222 c1 123 4 233 7 246 4 12 34
46 68 75 33 29 162 138 285 243 123 105 252 219 287 253 119 117 180 243 187
386 4 68 -11 159 -24 151 -3 -2 -6 9 -7 25 -2 57 -102 179 -213 262 -99 73
-360 189 -420 186 -9 0 20 -11 64 -24 75 -22 280 -119 291 -137 7 -10 -66 22
-86 38 -8 7 -18 13 -22 13 -5 1 -23 8 -40 15 -61 26 -113 44 -173 61 -33 9
-70 21 -83 26 -13 5 -35 9 -50 10 -15 0 -45 7 -67 14 l-40 14 48 -6 c91 -10
46 5 -64 22 -93 14 -113 15 -120 3 -5 -7 -8 -87 -6 -178 l2 -165 320 -5 320
-5 3 -373 c2 -360 2 -374 -19 -422 -28 -66 -120 -152 -206 -193 l-68 -32 -170
2 c-93 2 -180 0 -192 -3 l-23 -6 0 -272 0 -271 -148 0 c-81 0 -157 -2 -169 -4
l-23 -3 0 -327 c-1 -528 -17 -596 -246 -1049 -79 -156 -144 -287 -144 -291 0
-4 44 -31 98 -61 153 -84 362 -216 505 -322 73 -53 135 -93 139 -89 11 10 -3
82 -15 74 -6 -3 -7 -1 -3 5 4 7 4 33 0 60 -7 44 -8 45 -14 17 -3 -16 -5 47 -4
140 2 182 17 280 59 392 58 154 162 282 270 334 92 44 101 37 39 -27 -116
-121 -204 -300 -245 -499 -21 -99 -16 -316 10 -409 24 -89 93 -240 169 -369
29 -48 52 -92 52 -98 0 -18 -58 23 -213 150 -357 291 -677 497 -1112 714 -320
160 -524 248 -549 236 -19 -9 -20 -8 -2 3 132 90 330 253 470 388 181 175 319
389 351 545 16 80 23 691 7 707 -5 5 -169 7 -365 6 l-356 -3 -1 389 c0 215 -2
391 -4 393 -1 2 -19 -21 -39 -50 -25 -39 -49 -61 -84 -78 l-48 -24 -9 -342
c-4 -188 -5 -359 -1 -380 4 -23 20 -50 43 -73 l37 -37 330 -7 c210 -4 334 -11
342 -18 7 -6 13 -30 13 -55 l0 -44 -347 3 c-339 3 -349 4 -390 26 -65 34 -110
85 -128 144 -12 42 -15 117 -15 420 l0 368 -32 14 c-169 72 -222 268 -112 413
65 85 211 110 311 53 63 -36 101 -81 128 -152 20 -50 23 -53 60 -56 22 -2 45
-8 50 -13 6 -6 12 -156 15 -387 l5 -377 349 -3 c248 -2 353 -6 363 -14 12 -10
14 -75 10 -402 -3 -362 -5 -397 -25 -469 -74 -270 -258 -505 -610 -781 -34
-27 -62 -56 -62 -65 0 -23 426 -228 447 -215 15 9 221 387 278 509 53 115 84
211 100 308 12 74 15 232 16 842 1 412 3 794 6 848 l5 98 167 -2 c92 -2 172 1
179 5 8 5 12 36 12 92 l0 84 213 -2 212 -3 3 -52 3 -52 -158 -3 -158 -3 -3
-90 -3 -90 -152 3 c-84 2 -167 0 -184 -3 l-33 -6 0 -369 c0 -440 -9 -410 119
-410 96 0 104 7 100 87 -1 32 -2 151 -1 265 l2 206 248 4 c271 3 262 2 345 71
78 65 77 59 82 395 3 163 1 303 -3 310 -7 10 -76 12 -330 10 -177 -2 -319 -2
-315 -1 5 2 6 81 3 175 -3 95 -4 233 -2 306 3 128 4 132 25 132 12 0 74 -5
137 -10z m-1034 -38 c84 -43 154 -156 154 -247 0 -49 -33 -148 -63 -187 -14
-18 -43 -40 -64 -47 -21 -7 -48 -20 -60 -27 l-23 -14 0 -389 c0 -345 2 -390
16 -395 29 -11 189 -7 202 6 9 9 12 94 12 319 0 169 3 314 6 323 5 14 33 16
203 16 140 0 200 3 209 12 8 8 12 56 12 149 l0 137 -26 5 c-15 2 -80 5 -144 6
-114 2 -118 1 -125 -21 l-8 -23 -4 24 c-3 13 0 27 5 30 6 4 12 29 14 56 l3 50
185 0 c102 -1 193 -4 203 -8 16 -6 17 -28 17 -272 l0 -265 -209 0 c-181 0
-210 -2 -215 -16 -3 -9 -6 -157 -6 -329 0 -307 -2 -345 -22 -345 -5 0 -7 4 -4
8 5 9 -224 22 -371 22 -62 0 -73 3 -75 18 -2 9 -3 215 -3 457 0 412 -1 440
-17 439 -10 -1 -16 2 -13 6 6 11 -44 31 -58 24 -7 -4 -9 -4 -5 1 4 4 -10 27
-32 51 -139 151 -82 382 110 445 43 14 152 4 196 -19z m1112 -109 c-10 -2 -26
-2 -35 0 -10 3 -2 5 17 5 19 0 27 -2 18 -5z m663 -250 c13 -16 12 -17 -3 -4
-17 13 -22 21 -14 21 2 0 10 -8 17 -17z m40 -30 c13 -16 12 -17 -3 -4 -17 13
-22 21 -14 21 2 0 10 -8 17 -17z m65 -65 l29 -33 -32 29 c-31 28 -38 36 -30
36 2 0 16 -15 33 -32z m-949 -3490 c-2 -13 -4 -5 -4 17 -1 22 1 32 4 23 2 -10
2 -28 0 -40z m20 -120 c-3 -8 -6 -5 -6 6 -1 11 2 17 5 13 3 -3 4 -12 1 -19z"/>
<path d="M2725 4590 c11 -5 29 -8 40 -8 16 0 15 2 -5 8 -34 11 -60 11 -35 0z"/>
<path d="M690 3963 c-48 -18 -100 -100 -100 -155 1 -43 28 -96 61 -121 39 -28
106 -33 149 -9 95 52 98 210 5 263 -34 20 -93 31 -115 22z"/>
<path d="M3397 3369 c-43 -10 -90 -26 -105 -34 -25 -14 -25 -15 -3 -9 75 20
191 -11 229 -61 14 -19 22 -21 64 -14 61 10 69 15 65 44 -3 27 -23 52 -51 66
-20 10 -21 10 -2 -5 25 -20 10 -20 -24 -1 -16 9 -20 15 -10 16 22 2 -30 17
-60 17 -14 0 -60 -8 -103 -19z"/>
<path d="M3455 3193 c-43 -14 -47 -17 -26 -22 42 -11 49 -36 18 -69 -15 -15
-27 -35 -27 -43 0 -9 3 -10 8 -3 4 6 30 22 59 34 29 12 58 28 64 36 15 18 3
64 -17 64 -8 0 -12 5 -9 10 8 14 -11 12 -70 -7z"/>
<path d="M3290 3120 c-75 -38 -91 -50 -75 -55 11 -3 46 -20 78 -36 70 -37 76
-30 6 9 l-50 29 38 30 c21 17 56 40 78 51 22 12 36 21 30 21 -5 0 -53 -22
-105 -49z"/>
<path d="M3335 3080 c-13 -6 -15 -9 -5 -9 8 0 22 4 30 9 18 12 2 12 -25 0z"/>
<path d="M1246 4606 c-77 -72 -84 -163 -17 -236 25 -28 50 -43 82 -52 42 -10
51 -9 95 13 37 18 54 35 72 69 26 53 28 85 6 141 -25 61 -82 99 -150 99 -46 0
-57 -4 -88 -34z"/>
</g>
</svg>
